<?xml version="1.0" standalone="no"?>
<!DOCTYPE svg PUBLIC "-//W3C//DTD SVG 20010904//EN"
 "http://www.w3.org/TR/2001/REC-SVG-20010904/DTD/svg10.dtd">
<svg version="1.0" xmlns="http://www.w3.org/2000/svg"
 width="1280.000000pt" height="1280.000000pt" viewBox="0 0 1280.000000 1280.000000"
 preserveAspectRatio="xMidYMid meet">
<metadata>
Created by potrace 1.11, written by Peter Selinger 2001-2013
</metadata>
<g transform="translate(0.000000,1280.000000) scale(0.100000,-0.100000)"
fill="#000000" stroke="none">
<path d="M10500 12497 c-8 -23 -15 -46 -16 -52 -2 -5 -22 -66 -46 -135 -24
-69 -45 -127 -45 -130 -1 -3 -4 -12 -7 -20 -3 -8 -64 -190 -136 -405 -189
-562 -245 -728 -480 -1425 -116 -344 -213 -633 -215 -644 -3 -10 -6 -20 -7
-21 -2 -2 -32 14 -68 34 -174 99 -459 250 -512 271 -18 7 -40 19 -49 27 -8 7
-18 13 -22 13 -7 0 -66 27 -208 93 -323 152 -824 334 -1214 441 -204 56 -619
146 -740 162 -11 1 -33 5 -50 7 -67 12 -219 31 -325 42 -36 4 -73 9 -83 10
-135 26 -920 26 -1097 0 -14 -2 -50 -7 -80 -10 -30 -3 -82 -10 -115 -15 -33
-5 -78 -12 -100 -15 -44 -6 -45 -6 -150 -29 -419 -90 -845 -311 -1198 -618
-128 -113 -301 -289 -387 -397 -19 -24 -40 -48 -46 -55 -6 -6 -49 -63 -96
-126 -165 -223 -303 -451 -449 -743 -50 -100 -91 -184 -91 -187 0 -3 -12 -30
-25 -60 -14 -30 -34 -77 -45 -105 -11 -27 -25 -63 -33 -80 -40 -93 -151 -405
-146 -413 1 -1 -5 -15 -13 -30 -38 -73 -218 -759 -251 -952 -3 -19 -14 -82
-25 -140 -20 -110 -25 -139 -35 -205 -3 -23 -7 -50 -9 -60 -2 -11 -7 -45 -10
-75 -4 -30 -9 -71 -11 -90 -3 -19 -7 -55 -10 -80 -3 -25 -7 -52 -8 -60 -5 -19
-10 -46 -48 -255 -17 -93 -33 -177 -34 -185 -2 -8 -18 -80 -35 -160 -17 -80
-33 -154 -36 -165 -27 -134 -158 -622 -210 -785 -10 -30 -19 -61 -21 -67 -7
-27 -10 -39 -16 -53 -3 -8 -29 -87 -57 -175 -29 -88 -60 -180 -70 -205 -10
-25 -32 -85 -50 -135 -30 -83 -38 -105 -61 -160 -5 -11 -26 -65 -48 -120 -99
-253 -352 -792 -469 -1000 -15 -27 -45 -81 -66 -120 -21 -38 -70 -122 -109
-185 -39 -63 -75 -124 -81 -135 -21 -37 -170 -259 -228 -340 -64 -89 -80 -110
-155 -204 l-52 -65 102 -44 c56 -23 174 -72 262 -108 88 -36 174 -71 190 -78
17 -8 86 -35 155 -61 69 -25 134 -51 145 -56 40 -18 626 -227 680 -243 6 -2
24 -6 40 -11 17 -4 35 -10 40 -14 6 -3 15 -7 20 -8 6 -1 69 -21 140 -44 72
-23 157 -50 190 -60 33 -10 92 -27 130 -39 212 -64 460 -131 775 -209 357 -89
472 -116 481 -113 4 0 22 -3 40 -9 19 -5 48 -12 64 -15 17 -3 46 -9 65 -14 19
-5 51 -11 70 -14 19 -3 49 -9 65 -14 17 -4 37 -8 45 -7 8 1 22 -2 30 -6 8 -4
33 -9 55 -13 22 -3 51 -8 65 -10 14 -3 68 -12 120 -21 52 -9 97 -18 100 -20 3
-2 32 -6 64 -9 32 -4 62 -9 67 -12 5 -3 28 -7 52 -10 41 -4 55 -6 134 -18 21
-3 56 -9 78 -12 22 -3 51 -7 65 -9 62 -10 201 -28 304 -40 27 -3 59 -7 70 -10
12 -2 47 -7 78 -10 68 -6 145 -13 211 -20 189 -19 267 -27 322 -30 28 -2 97
-6 155 -10 369 -25 546 -30 1020 -30 424 1 574 5 800 20 36 2 106 7 155 10 50
3 106 8 125 10 19 2 71 7 115 11 44 4 94 8 110 10 17 2 59 6 95 9 36 3 76 8
90 10 14 2 48 7 75 10 28 3 66 8 85 11 19 3 49 7 65 9 17 2 44 6 60 9 29 5 79
12 146 21 19 3 45 7 59 10 13 2 42 7 65 11 114 16 174 33 129 35 -32 1 -136
16 -175 25 -10 2 -29 6 -41 9 -74 15 -125 28 -143 36 -19 7 -94 32 -105 34 -3
1 -21 8 -41 17 -20 9 -47 19 -60 23 -33 10 -193 91 -243 123 -201 126 -247
163 -401 317 -92 91 -245 273 -245 290 0 2 -20 36 -45 74 -25 38 -45 72 -45
75 0 4 -10 23 -23 44 -26 42 -106 230 -131 307 -49 156 -80 317 -92 465 -32
419 64 830 279 1190 28 47 66 105 84 130 18 25 37 50 41 55 55 77 217 248 298
315 84 71 123 100 133 100 6 0 11 5 11 10 0 6 8 14 18 18 9 4 42 23 72 43 109
71 354 188 428 204 9 2 44 13 77 23 33 11 87 26 120 33 33 7 65 13 70 15 29 6
98 16 160 24 68 8 420 6 460 -3 11 -3 40 -8 65 -12 25 -3 59 -9 75 -11 17 -3
48 -10 70 -16 22 -5 49 -12 60 -14 11 -2 61 -17 110 -34 50 -17 95 -32 100
-34 131 -42 426 -214 560 -328 74 -63 243 -237 297 -306 101 -129 209 -311
262 -442 15 -36 31 -74 37 -85 6 -12 11 -27 12 -35 2 -8 5 -19 9 -25 3 -5 12
-30 19 -55 7 -25 14 -49 16 -55 4 -13 42 -183 47 -211 3 -12 7 -48 11 -80 4
-33 9 -70 11 -84 8 -48 4 -309 -6 -387 -6 -43 -13 -96 -16 -118 -6 -45 -44
-202 -69 -285 -36 -116 -162 -387 -201 -431 -8 -8 -14 -19 -14 -23 0 -4 -11
-22 -25 -40 -50 -65 -31 -55 120 64 38 30 78 62 89 70 10 8 30 25 44 38 14 12
48 41 75 65 184 155 443 420 593 606 10 13 24 28 30 35 79 85 335 452 436 626
84 143 248 458 248 475 0 2 11 28 24 57 63 137 197 507 210 581 3 12 5 22 6
22 1 0 3 7 5 15 37 138 38 141 64 261 32 150 49 250 65 384 4 28 9 64 11 80
26 167 26 725 0 930 -4 34 -13 102 -20 155 -10 78 -54 307 -64 331 -5 15 -7
29 -4 32 3 3 1 12 -3 19 -5 7 -10 22 -11 32 -6 34 -63 228 -105 351 -81 238
-229 562 -366 795 -84 144 -234 369 -326 490 -264 346 -554 648 -910 948 -155
131 -412 319 -566 413 -38 24 -70 46 -70 49 0 3 459 462 1020 1020 561 558
1020 1016 1019 1020 0 3 -83 59 -185 125 -101 66 -197 130 -212 142 -15 13
-32 23 -39 23 -6 0 -13 3 -15 8 -3 6 -148 107 -198 137 -10 6 -37 23 -61 40
-24 16 -51 34 -60 40 -9 5 -58 38 -108 73 -50 34 -96 62 -100 62 -5 0 -11 4
-13 8 -2 6 -803 545 -854 575 -7 4 -16 -10 -24 -36z"/>
</g>
</svg>
